<?xml version="1.0"?>
<svg xmlns="http://www.w3.org/2000/svg" xmlns:xlink="http://www.w3.org/1999/xlink" xmlns:svgjs="http://svgjs.com/svgjs" version="1.1" width="512" height="512" x="0" y="0" viewBox="0 0 512 512" style="enable-background:new 0 0 512 512" xml:space="preserve"><g><g xmlns="http://www.w3.org/2000/svg" id="Plant_Tomatoes" data-name="Plant Tomatoes"><g id="Flat"><path d="m405 297.753c-52.257-41.806-103.645-38.36-141-16.865v-168.888c.466-43.28 64-41.391 64 0 0 10.134 16 10.32 16 0 0-42.28-49.844-62.757-80-35.739v-36.261c.066-10.752-16.082-9.911-16 0v30.452c-29.434-43.652-93.288-57.581-138.395-22.744-8.212 6.342 1.406 19.129 9.78 12.663 51.548-39.808 128.615-3.445 128.615 63.94v36c-36.7 2.338-88 32.744-88 71.188 0 10.149 16 10.308 16 0 0-17.993 27.784-51.47 72-55.152v247.653c-.106 10.156 16.1 10.3 16 0v-124.085c35.129-27.544 87.972-24.092 131 10.332 7.945 6.353 18.026-6.072 10-12.494z" fill="#49ad4d" data-original="#49ad4d" style=""/><path d="m112 312c-43.065 0-72-22.5-72-56 0-35.29 32.3-64 72-64s72 28.71 72 64c0 33.5-28.935 56-72 56z" fill="#cf3f30" data-original="#cf3f30" style=""/><path d="m160 344c-43.065 0-72-22.5-72-56 0-35.29 32.3-64 72-64s72 28.71 72 64c0 33.5-28.935 56-72 56z" fill="#ea6049" data-original="#ea6049" style=""/><path d="m400 185.052c-43.065 0-72-22.5-72-56 0-35.29 32.3-64 72-64s72 28.71 72 64c0 33.495-28.935 56-72 56z" fill="#cf3f30" data-original="#cf3f30" style=""/><path d="m333.353 98.573c-6.387-13.483-6.681-27.288-.85-39.925 26.727-57.919 117.616-41.879 143.982-34.571a8.1 8.1 0 0 1 5.182 10.939c-1.13 2.559-28.113 62.9-67.292 81.455-30.182 14.297-65.297 15.49-81.022-17.898z" fill="#81c784" data-original="#81c784" style=""/><path d="m476.485 24.077a213.637 213.637 0 0 0 -23.315-4.893c-21.575 44.809-75 70.565-124.811 57.24a49.108 49.108 0 0 0 4.994 22.149c15.725 33.388 50.84 32.2 81.022 17.9 39.179-18.559 66.162-78.9 67.292-81.455a8.1 8.1 0 0 0 -5.182-10.941z" fill="#66bb6a" data-original="#66bb6a" style=""/><path d="m40.064 98.473a8.1 8.1 0 0 1 -5.272-11.131c1.13-2.425 28.125-59.621 66.231-77.671 31.23-14.793 63.377-14.949 78.388 15.981 34.51 77.511-104.187 81.793-139.347 72.821z" fill="#66bb6a" data-original="#66bb6a" style=""/><path d="m179.411 25.652c-14.449-29.771-44.773-30.735-74.873-17.575 16.366 32.717 3.444 75.638-27.648 93.755 52.488-.132 129.178-16.307 102.521-76.18z" fill="#49ad4d" data-original="#49ad4d" style=""/><path d="m301.311 432.057a71.96 71.96 0 0 0 -90.622 0c-40.662-1.707-74.669 31.421-74.689 71.943h240c.017-40.583-34.013-73.611-74.689-71.943z" fill="#a1887f" data-original="#a1887f" style=""/><path d="m168 264.329v-20.686l10.343 10.343c7.151 7.274 18.636-4.116 11.314-11.314l-17.787-17.787a80.045 80.045 0 0 0 -23.74 0l-17.787 17.787c-7.818 7.731 4.155 18.453 11.314 11.314l10.343-10.343v20.686c-.106 10.148 16.1 10.308 16 0z" fill="#81c784" data-original="#81c784" style=""/><path d="m369.88 344.43c-30.5-14.447-51.961-39.61-37.291-70.778 14.788-31.034 47.667-30.533 78.388-15.981 38.106 18.05 65.1 75.246 66.231 77.671a8.109 8.109 0 0 1 -5.272 11.131c-20.022 5.11-71.257 12.545-102.056-2.043z" fill="#66bb6a" data-original="#66bb6a" style=""/><path d="m352 217.052c-43.065 0-72-22.5-72-56 0-35.29 32.3-64 72-64s72 28.71 72 64c0 33.495-28.935 56-72 56z" fill="#ea6049" data-original="#ea6049" style=""/><circle cx="256" cy="8" fill="#49ad4d" r="8" data-original="#49ad4d" style=""/><path d="m88.01 152.976c-.049-2.676-.906-65.916 25.406-98.864 52.8-66.115 129.918-8.847 75.014 59.907-26.312 32.948-88.175 46.1-90.8 46.643a8.112 8.112 0 0 1 -9.62-7.686z" fill="#81c784" data-original="#81c784" style=""/><path d="m90.167 119.581a245.072 245.072 0 0 0 -2.157 33.395 8.112 8.112 0 0 0 9.624 7.686c2.621-.544 64.484-13.695 90.8-46.643 18.327-22.951 21.93-44.613 16.651-60.842-19.858 42.532-65.554 70.623-114.918 66.404z" fill="#66bb6a" data-original="#66bb6a" style=""/><path d="m392.992 108.48a57.83 57.83 0 0 1 7.008 27.52c0 33.5-28.935 56-72 56-17.092 0-31.946-3.556-43.661-9.926 9.582 21.545 34.4 34.978 67.661 34.978 43.065 0 72-22.5 72-56 0-21.758-12.287-41.003-31.008-52.572z" fill="#de513e" data-original="#de513e" style=""/><path d="m200.992 235.428a57.83 57.83 0 0 1 7.008 27.52c0 33.5-28.935 56-72 56-17.092 0-31.946-3.556-43.661-9.926 9.582 21.545 34.399 34.978 67.661 34.978 43.065 0 72-22.5 72-56 0-21.758-12.287-41-31.008-52.572z" fill="#de513e" data-original="#de513e" style=""/><path d="m360.1 137.381v-20.681l10.343 10.343c7.15 7.273 18.635-4.116 11.314-11.314l-17.785-17.792a80.045 80.045 0 0 0 -23.74 0l-17.787 17.787c-7.818 7.73 4.155 18.453 11.314 11.314l10.341-10.338v20.686c-.1 10.143 16.1 10.303 16-.005z" fill="#81c784" data-original="#81c784" style=""/><path d="m452.411 294.693c-39.471 29.307-93.277 19.834-121.711-16.458-10.6 29.047 10.2 52.464 39.184 66.195 30.8 14.588 82.034 7.153 102.056 2.043a8.108 8.108 0 0 0 5.272-11.131 248.722 248.722 0 0 0 -24.801-40.649z" fill="#49ad4d" data-original="#49ad4d" style=""/><path d="m414.366 408.662c-26.415-5.477-110.28-32.428-110.169-92.493.109-58.884 66.017-49.581 94.387-14.057 26.316 32.948 25.455 96.188 25.406 98.864a8.156 8.156 0 0 1 -9.624 7.686z" fill="#81c784" data-original="#81c784" style=""/><path d="m306.635 333.482c13.936 48.009 84 70.26 107.731 75.18a8.156 8.156 0 0 0 9.624-7.686 248.014 248.014 0 0 0 -5.009-50.247 104.01 104.01 0 0 1 -112.346-17.247z" fill="#66bb6a" data-original="#66bb6a" style=""/><circle cx="120" cy="280" fill="#f27c6d" r="16" data-original="#f27c6d" style=""/><circle cx="152" cy="292" fill="#f27c6d" r="8" data-original="#f27c6d" style=""/><g fill="#c8e6c9"><circle cx="344" cy="308" r="16" fill="#c8e6c9" data-original="#c8e6c9" style=""/><circle cx="376" cy="320" r="8" fill="#c8e6c9" data-original="#c8e6c9" style=""/><circle cx="152" cy="56" r="16" fill="#c8e6c9" data-original="#c8e6c9" style=""/><circle cx="400" cy="40" r="16" fill="#c8e6c9" data-original="#c8e6c9" style=""/></g><circle cx="312" cy="152" fill="#f27c6d" r="16" data-original="#f27c6d" style=""/><circle cx="128" cy="80" fill="#c8e6c9" r="8" data-original="#c8e6c9" style=""/><circle cx="360" cy="56" fill="#c8e6c9" r="8" data-original="#c8e6c9" style=""/><circle cx="344" cy="168" fill="#f27c6d" r="8" data-original="#f27c6d" style=""/><path d="m234.625 504h141.375c.017-40.583-34.013-73.611-74.689-71.943a71.984 71.984 0 0 0 -15.294-9.5 128 128 0 0 1 -51.392 81.443z" fill="#9c7b70" data-original="#9c7b70" style=""/><path d="m312 480h-24a8 8 0 0 1 0-16h24a8 8 0 0 1 0 16z" fill="#876559" data-original="#876559" style=""/><path d="m224 480h-24a8 8 0 0 1 0-16h24a8 8 0 0 1 0 16z" fill="#876559" data-original="#876559" style=""/><path d="m504 512h-496a8 8 0 0 1 0-16h496a8 8 0 0 1 0 16z" fill="#876559" data-original="#876559" style=""/><path d="m243.734 452.029c6.438 8.031 18.857-2.059 12.485-10.008a71.934 71.934 0 0 0 -27.8-21.186c-11.941 4.71-17.174 11.165-17.73 11.165-.091 0-.181.007-.272.007a55.756 55.756 0 0 1 33.317 20.022z" fill="#876559" data-original="#876559" style=""/></g></g></g></svg>
